<svg width="23" height="23" viewBox="0 0 23 23" fill="none" xmlns="http://www.w3.org/2000/svg">
<g id="bi:search" clip-path="url(#clip0_5_1590)">
<path id="Vector" d="M16.8792 14.8698C18.2711 12.9704 18.8945 10.6155 18.6248 8.27617C18.355 5.93687 17.2118 3.78569 15.4241 2.25302C13.6364 0.72034 11.3358 -0.0808033 8.98277 0.00986431C6.62971 0.100532 4.39765 1.07632 2.73314 2.74202C1.06864 4.40772 0.0944426 6.64048 0.00545869 8.9936C-0.0835252 11.3467 0.719265 13.6467 2.25322 15.4333C3.78717 17.22 5.93917 18.3616 8.27866 18.6297C10.6182 18.8978 12.9726 18.2727 14.871 16.8794H14.8696C14.9127 16.9369 14.9587 16.9915 15.0104 17.0447L20.5448 22.5791C20.8144 22.8488 21.18 23.0004 21.5613 23.0006C21.9427 23.0007 22.3084 22.8493 22.5782 22.5798C22.8479 22.3103 22.9995 21.9446 22.9996 21.5633C22.9998 21.1819 22.8484 20.8162 22.5789 20.5465L17.0445 15.0121C16.9931 14.9601 16.9378 14.912 16.8792 14.8683V14.8698ZM17.2501 9.34402C17.2501 10.3823 17.0456 11.4104 16.6482 12.3696C16.2509 13.3288 15.6685 14.2004 14.9344 14.9346C14.2002 15.6687 13.3286 16.2511 12.3694 16.6484C11.4102 17.0458 10.3821 17.2503 9.34382 17.2503C8.30556 17.2503 7.27746 17.0458 6.31823 16.6484C5.359 16.2511 4.48742 15.6687 3.75326 14.9346C3.01909 14.2004 2.43672 13.3288 2.0394 12.3696C1.64207 11.4104 1.43757 10.3823 1.43757 9.34402C1.43757 7.24715 2.27055 5.23616 3.75326 3.75345C5.23597 2.27074 7.24695 1.43777 9.34382 1.43777C11.4407 1.43777 13.4517 2.27074 14.9344 3.75345C16.4171 5.23616 17.2501 7.24715 17.2501 9.34402Z" fill="white"/>
</g>
<defs>
<clipPath id="clip0_5_1590">
<rect width="23" height="23" fill="white"/>
</clipPath>
</defs>
</svg>
