<svg width="134" height="45" viewBox="0 0 134 45" fill="none" xmlns="http://www.w3.org/2000/svg">
<path fill-rule="evenodd" clip-rule="evenodd" d="M8.49999 20C13.1945 20 17 16.1944 17 11.5C17 6.80558 13.1945 3 8.49999 3C3.80558 3 0 6.80558 0 11.5C0 16.1944 3.80558 20 8.49999 20ZM9.81197 9.56734C10.5365 8.84276 10.5365 7.66802 9.81197 6.94343C9.08739 6.21886 7.91264 6.21886 7.18806 6.94343C6.46352 7.66802 6.46352 8.84276 7.18806 9.56734L8.49999 10.8793L9.81197 9.56734ZM10.4327 12.812C11.1573 13.5366 12.332 13.5366 13.0566 12.812C13.7811 12.0874 13.7811 10.9126 13.0566 10.1881C12.332 9.46352 11.1573 9.46352 10.4327 10.1881L9.12075 11.5L10.4327 12.812ZM9.81197 16.0566C10.5365 15.332 10.5365 14.1573 9.81197 13.4327L8.49999 12.1207L7.18806 13.4327C6.46352 14.1573 6.46352 15.332 7.18806 16.0566C7.91264 16.7812 9.08739 16.7812 9.81197 16.0566ZM3.94342 12.812C3.21886 12.0874 3.21886 10.9126 3.94342 10.1881C4.66802 9.46352 5.84276 9.46352 6.56734 10.1881L7.87928 11.5L6.56734 12.812C5.84276 13.5366 4.66802 13.5366 3.94342 12.812Z" fill="url(#paint0_linear_5_1303)"/>
<path d="M28.1 11.94V33H22.97V24.33H14.99V33H9.86V11.94H14.99V20.19H22.97V11.94H28.1ZM40.6234 33.24C38.9834 33.24 37.5034 32.89 36.1834 32.19C34.8834 31.49 33.8534 30.49 33.0934 29.19C32.3534 27.89 31.9834 26.37 31.9834 24.63C31.9834 22.91 32.3634 21.4 33.1234 20.1C33.8834 18.78 34.9234 17.77 36.2434 17.07C37.5634 16.37 39.0434 16.02 40.6834 16.02C42.3234 16.02 43.8034 16.37 45.1234 17.07C46.4434 17.77 47.4834 18.78 48.2434 20.1C49.0034 21.4 49.3834 22.91 49.3834 24.63C49.3834 26.35 48.9934 27.87 48.2134 29.19C47.4534 30.49 46.4034 31.49 45.0634 32.19C43.7434 32.89 42.2634 33.24 40.6234 33.24ZM40.6234 28.8C41.6034 28.8 42.4334 28.44 43.1134 27.72C43.8134 27 44.1634 25.97 44.1634 24.63C44.1634 23.29 43.8234 22.26 43.1434 21.54C42.4834 20.82 41.6634 20.46 40.6834 20.46C39.6834 20.46 38.8534 20.82 38.1934 21.54C37.5334 22.24 37.2034 23.27 37.2034 24.63C37.2034 25.97 37.5234 27 38.1634 27.72C38.8234 28.44 39.6434 28.8 40.6234 28.8ZM74.6649 16.08C76.7449 16.08 78.3949 16.71 79.6149 17.97C80.8549 19.23 81.4749 20.98 81.4749 23.22V33H76.3749V23.91C76.3749 22.83 76.0849 22 75.5049 21.42C74.9449 20.82 74.1649 20.52 73.1649 20.52C72.1649 20.52 71.3749 20.82 70.7949 21.42C70.2349 22 69.9549 22.83 69.9549 23.91V33H64.8549V23.91C64.8549 22.83 64.5649 22 63.9849 21.42C63.4249 20.82 62.6449 20.52 61.6449 20.52C60.6449 20.52 59.8549 20.82 59.2749 21.42C58.7149 22 58.4349 22.83 58.4349 23.91V33H53.3049V16.26H58.4349V18.36C58.9549 17.66 59.6349 17.11 60.4749 16.71C61.3149 16.29 62.2649 16.08 63.3249 16.08C64.5849 16.08 65.7049 16.35 66.6849 16.89C67.6849 17.43 68.4649 18.2 69.0249 19.2C69.6049 18.28 70.3949 17.53 71.3949 16.95C72.3949 16.37 73.4849 16.08 74.6649 16.08ZM102.043 24.36C102.043 24.84 102.013 25.34 101.953 25.86H90.3427C90.4227 26.9 90.7527 27.7 91.3327 28.26C91.9327 28.8 92.6627 29.07 93.5227 29.07C94.8027 29.07 95.6927 28.53 96.1927 27.45H101.653C101.373 28.55 100.863 29.54 100.123 30.42C99.4027 31.3 98.4927 31.99 97.3927 32.49C96.2927 32.99 95.0627 33.24 93.7027 33.24C92.0627 33.24 90.6027 32.89 89.3227 32.19C88.0427 31.49 87.0427 30.49 86.3227 29.19C85.6027 27.89 85.2427 26.37 85.2427 24.63C85.2427 22.89 85.5927 21.37 86.2927 20.07C87.0127 18.77 88.0127 17.77 89.2927 17.07C90.5727 16.37 92.0427 16.02 93.7027 16.02C95.3227 16.02 96.7627 16.36 98.0227 17.04C99.2827 17.72 100.263 18.69 100.963 19.95C101.683 21.21 102.043 22.68 102.043 24.36ZM96.7927 23.01C96.7927 22.13 96.4927 21.43 95.8927 20.91C95.2927 20.39 94.5427 20.13 93.6427 20.13C92.7827 20.13 92.0527 20.38 91.4527 20.88C90.8727 21.38 90.5127 22.09 90.3727 23.01H96.7927ZM114.349 20.52H111.589V33H106.459V20.52H104.599V16.26H106.459V15.78C106.459 13.72 107.049 12.16 108.229 11.1C109.409 10.02 111.139 9.48 113.419 9.48C113.799 9.48 114.079 9.49 114.259 9.51V13.86C113.279 13.8 112.589 13.94 112.189 14.28C111.789 14.62 111.589 15.23 111.589 16.11V16.26H114.349V20.52ZM120.54 14.52C119.64 14.52 118.9 14.26 118.32 13.74C117.76 13.2 117.48 12.54 117.48 11.76C117.48 10.96 117.76 10.3 118.32 9.78C118.9 9.24 119.64 8.97 120.54 8.97C121.42 8.97 122.14 9.24 122.7 9.78C123.28 10.3 123.57 10.96 123.57 11.76C123.57 12.54 123.28 13.2 122.7 13.74C122.14 14.26 121.42 14.52 120.54 14.52ZM123.09 16.26V33H117.96V16.26H123.09Z" fill="white"/>
<circle cx="120.5" cy="11.5" r="3.5" fill="url(#paint1_linear_5_1303)"/>
<defs>
<linearGradient id="paint0_linear_5_1303" x1="6.82015e-08" y1="11.5" x2="19.8669" y2="11.5" gradientUnits="userSpaceOnUse">
<stop stop-color="#709DFF"/>
<stop offset="0.9999" stop-color="#125DFF" stop-opacity="0.914896"/>
<stop offset="1" stop-color="#4E86FF"/>
</linearGradient>
<linearGradient id="paint1_linear_5_1303" x1="117" y1="9.71893" x2="124" y2="12.2145" gradientUnits="userSpaceOnUse">
<stop stop-color="#FFAD6E"/>
<stop offset="1" stop-color="#FF892F"/>
</linearGradient>
</defs>
</svg>
