<svg width="94" height="28" viewBox="0 0 94 28" fill="none" xmlns="http://www.w3.org/2000/svg">
<path fill-rule="evenodd" clip-rule="evenodd" d="M6.49999 15C10.0899 15 13 12.0898 13 8.49999C13 4.91015 10.0899 2 6.49999 2C2.91015 2 0 4.91015 0 8.49999C0 12.0898 2.91015 15 6.49999 15ZM7.50327 7.02209C8.05733 6.46799 8.05733 5.56966 7.50327 5.01557C6.94918 4.46148 6.05084 4.46148 5.49675 5.01557C4.94269 5.56966 4.94269 6.46799 5.49675 7.02209L6.49999 8.02533L7.50327 7.02209ZM7.97793 9.50327C8.53203 10.0574 9.43036 10.0574 9.98445 9.50327C10.5385 8.94918 10.5385 8.05084 9.98445 7.49675C9.43036 6.94269 8.53203 6.94269 7.97793 7.49675L6.97469 8.50003L7.97793 9.50327ZM7.50327 11.9845C8.05733 11.4304 8.05733 10.532 7.50327 9.97793L6.49999 8.97469L5.49675 9.97793C4.94269 10.532 4.94269 11.4304 5.49675 11.9845C6.05084 12.5385 6.94918 12.5385 7.50327 11.9845ZM3.01556 9.50327C2.46148 8.94918 2.46148 8.05084 3.01556 7.49675C3.56966 6.94269 4.46799 6.94269 5.02209 7.49675L6.02533 8.50003L5.02209 9.50327C4.46799 10.0574 3.56966 10.0574 3.01556 9.50327Z" fill="url(#paint0_linear_5_2774)"/>
<path d="M21.4 7.96V22H17.98V16.22H12.66V22H9.24V7.96H12.66V13.46H17.98V7.96H21.4ZM29.7489 22.16C28.6556 22.16 27.6689 21.9267 26.7889 21.46C25.9222 20.9933 25.2356 20.3267 24.7289 19.46C24.2356 18.5933 23.9889 17.58 23.9889 16.42C23.9889 15.2733 24.2422 14.2667 24.7489 13.4C25.2556 12.52 25.9489 11.8467 26.8289 11.38C27.7089 10.9133 28.6956 10.68 29.7889 10.68C30.8822 10.68 31.8689 10.9133 32.7489 11.38C33.6289 11.8467 34.3222 12.52 34.8289 13.4C35.3356 14.2667 35.5889 15.2733 35.5889 16.42C35.5889 17.5667 35.3289 18.58 34.8089 19.46C34.3022 20.3267 33.6022 20.9933 32.7089 21.46C31.8289 21.9267 30.8422 22.16 29.7489 22.16ZM29.7489 19.2C30.4022 19.2 30.9556 18.96 31.4089 18.48C31.8756 18 32.1089 17.3133 32.1089 16.42C32.1089 15.5267 31.8822 14.84 31.4289 14.36C30.9889 13.88 30.4422 13.64 29.7889 13.64C29.1222 13.64 28.5689 13.88 28.1289 14.36C27.6889 14.8267 27.4689 15.5133 27.4689 16.42C27.4689 17.3133 27.6822 18 28.1089 18.48C28.5489 18.96 29.0956 19.2 29.7489 19.2ZM52.4433 10.72C53.8299 10.72 54.9299 11.14 55.7433 11.98C56.5699 12.82 56.9833 13.9867 56.9833 15.48V22H53.5833V15.94C53.5833 15.22 53.3899 14.6667 53.0033 14.28C52.6299 13.88 52.1099 13.68 51.4433 13.68C50.7766 13.68 50.2499 13.88 49.8633 14.28C49.4899 14.6667 49.3033 15.22 49.3033 15.94V22H45.9033V15.94C45.9033 15.22 45.7099 14.6667 45.3233 14.28C44.9499 13.88 44.4299 13.68 43.7633 13.68C43.0966 13.68 42.5699 13.88 42.1833 14.28C41.8099 14.6667 41.6233 15.22 41.6233 15.94V22H38.2033V10.84H41.6233V12.24C41.9699 11.7733 42.4233 11.4067 42.9833 11.14C43.5433 10.86 44.1766 10.72 44.8833 10.72C45.7233 10.72 46.4699 10.9 47.1233 11.26C47.7899 11.62 48.3099 12.1333 48.6833 12.8C49.0699 12.1867 49.5966 11.6867 50.2633 11.3C50.9299 10.9133 51.6566 10.72 52.4433 10.72ZM70.6952 16.24C70.6952 16.56 70.6752 16.8933 70.6352 17.24H62.8952C62.9485 17.9333 63.1685 18.4667 63.5552 18.84C63.9552 19.2 64.4418 19.38 65.0152 19.38C65.8685 19.38 66.4618 19.02 66.7952 18.3H70.4352C70.2485 19.0333 69.9085 19.6933 69.4152 20.28C68.9352 20.8667 68.3285 21.3267 67.5952 21.66C66.8618 21.9933 66.0418 22.16 65.1352 22.16C64.0418 22.16 63.0685 21.9267 62.2152 21.46C61.3618 20.9933 60.6952 20.3267 60.2152 19.46C59.7352 18.5933 59.4952 17.58 59.4952 16.42C59.4952 15.26 59.7285 14.2467 60.1952 13.38C60.6752 12.5133 61.3418 11.8467 62.1952 11.38C63.0485 10.9133 64.0285 10.68 65.1352 10.68C66.2152 10.68 67.1752 10.9067 68.0152 11.36C68.8552 11.8133 69.5085 12.46 69.9752 13.3C70.4552 14.14 70.6952 15.12 70.6952 16.24ZM67.1952 15.34C67.1952 14.7533 66.9952 14.2867 66.5952 13.94C66.1952 13.5933 65.6952 13.42 65.0952 13.42C64.5218 13.42 64.0352 13.5867 63.6352 13.92C63.2485 14.2533 63.0085 14.7267 62.9152 15.34H67.1952ZM78.8994 13.68H77.0594V22H73.6394V13.68H72.3994V10.84H73.6394V10.52C73.6394 9.14667 74.0327 8.10667 74.8194 7.4C75.606 6.68 76.7594 6.32 78.2794 6.32C78.5327 6.32 78.7194 6.32667 78.8394 6.34V9.24C78.186 9.2 77.726 9.29333 77.4594 9.52C77.1927 9.74667 77.0594 10.1533 77.0594 10.74V10.84H78.8994V13.68ZM83.0264 9.68C82.4264 9.68 81.9331 9.50667 81.5464 9.16C81.1731 8.8 80.9864 8.36 80.9864 7.84C80.9864 7.30667 81.1731 6.86667 81.5464 6.52C81.9331 6.16 82.4264 5.98 83.0264 5.98C83.6131 5.98 84.0931 6.16 84.4664 6.52C84.8531 6.86667 85.0464 7.30667 85.0464 7.84C85.0464 8.36 84.8531 8.8 84.4664 9.16C84.0931 9.50667 83.6131 9.68 83.0264 9.68ZM84.7264 10.84V22H81.3064V10.84H84.7264Z" fill="#282A2E"/>
<circle cx="83" cy="7" r="3" fill="url(#paint1_linear_5_2774)"/>
<defs>
<linearGradient id="paint0_linear_5_2774" x1="5.21541e-08" y1="8.5" x2="15.1923" y2="8.5" gradientUnits="userSpaceOnUse">
<stop stop-color="#709DFF"/>
<stop offset="0.9999" stop-color="#125DFF" stop-opacity="0.914896"/>
<stop offset="1" stop-color="#4E86FF"/>
</linearGradient>
<linearGradient id="paint1_linear_5_2774" x1="80" y1="5.47337" x2="86" y2="7.61243" gradientUnits="userSpaceOnUse">
<stop stop-color="#FFAD6E"/>
<stop offset="1" stop-color="#FF892F"/>
</linearGradient>
</defs>
</svg>
